# xmcd
#
# Track frame offsets:
#   150
#   18237
#   26312
#   37512
#   69235
#   83275
#   95577
#   104518
#   121348
#   133517
#   148565
#   159767
#   167819
#   180530
#   194468
#   206441
#   216709
#   228552
#   243305
#   257662
#   268328
#   277353
#   285710
#
# Disc length: 4018 seconds
#
# Revision: 6
# Processed by: cddbd v1.5PL3 Copyright (c) Steve Scherf et al.
# Submitted via: AudioBrowser/FreeDBQuery 0.90.712
#
DISCID=450fb017
DTITLE=Bob Dylan and Johnny Cash - The Dylan/Cash Sessions
DYEAR=1969
DGENRE=Country
TTITLE0=One Too Many Mornings (Outtake)
TTITLE1=Mountain Dew (Outtake)
TTITLE2=I Still Miss Someone (Outtake)
TTITLE3=Careless Love (Outtake)
TTITLE4=Matchbox (Outtake)
TTITLE5=That's Alright Mama (Outtake)
TTITLE6=Big River (Outtake)
TTITLE7=Girl From the North Country (Outtake)
TTITLE8=I Walk The Line (Outtake)
TTITLE9=You Are My Sunshine (Outtake)
TTITLE10=Ring Of Fire (Outtake)
TTITLE11=Guess Things Happen That Way (Outtake)
TTITLE12=Just a Closer Walk With Thee (Outtake)
TTITLE13=Blue Yodel (Outtake)
TTITLE14=Blue Yodel No. 5 (Outtake)
TTITLE15=I Threw It All Away (The Johnny Cash Show, ABC--TV, 1 May 1969)
TTITLE16=Living The Blues (The Johnny Cash Show, ABC--TV, 1 May 1969)
TTITLE17=Girl From the North Country (The Johnny Cash Show, ABC--TV, 1 May 1969)
TTITLE18=Nashville Skyline Rag (Quad Mix)
TTITLE19=I Threw It All Away (Quad Mix)
TTITLE20=Peggy Day (Quad Mix)
TTITLE21=Country Pie (Quad Mix)
TTITLE22=Tonight I'll Be Staying Here With You (Quad Mix)
EXTD=
EXTT0=
EXTT1=
EXTT2=
EXTT3=
EXTT4=
EXTT5=
EXTT6=
EXTT7=
EXTT8=
EXTT9=
EXTT10=
EXTT11=
EXTT12=
EXTT13=
EXTT14=
EXTT15=
EXTT16=
EXTT17=
EXTT18=
EXTT19=
EXTT20=
EXTT21=
EXTT22=
PLAYORDER=
